<svg width="16" height="16" viewBox="0 0 16 16" fill="none" xmlns="http://www.w3.org/2000/svg">
<g clip-path="url(#clip0_106_531)">
<path d="M6.93116 10.4918C8.49804 11.9106 10.429 13.2915 12.7822 14.4137C14.7351 12.955 15.9997 10.6254 15.9997 7.99999C15.9997 6.26407 15.4452 4.65892 14.5059 3.34796L6.93085 10.4918H6.93116Z" fill="#F16527"/>
<path d="M5.512 11.83L4.82766 12.4755C4.68151 12.6131 4.45037 12.6031 4.31708 12.4526L3.97083 12.0621C3.84946 11.9251 3.8526 11.7184 3.97805 11.5851L4.59181 10.933C3.09362 9.35111 1.71868 7.25859 0.803513 4.50369C0.289164 5.55999 0 6.74613 0 8.00001C0 12.4184 3.58162 16 8 16C9.20339 16 10.3437 15.7325 11.3674 15.2567C9.9379 14.7753 7.67226 13.7773 5.512 11.83Z" fill="#F16527"/>
<path d="M5.9194 9.52266L13.1303 1.86295C11.7413 0.700643 9.95264 0 8 0C5.3141 0 2.939 1.32507 1.48816 3.35581C2.08029 4.57049 3.45742 7.02525 5.9194 9.52297V9.52266Z" fill="#F16527"/>
</g>
<defs>
<clipPath id="clip0_106_531">
<rect width="16" height="16" fill="white"/>
</clipPath>
</defs>
</svg>
